# xmcd
#
# Track frame offsets:
#	150
#	16650
#	29753
#	42693
#	58930
#	72885
#	88935
#	101700
#	114928
#	128827
#	143341
#	158645
#
# Disc length: 2277 seconds
#
# Revision: 0
# Processed by: cddbd v1.5.2PL0 Copyright (c) Steve Scherf et al.
# Submitted via: EasyCDDAExtractor 10.0.1.1
#
DISCID=a108e30c
DTITLE=Israel and Rodolfo - Raridade
DYEAR=2008
DGENRE=Country
TTITLE0=Vem namorar comigo
TTITLE1=Raridade
TTITLE2=Alem da vida
TTITLE3=Larga tudo e vem pra mim
TTITLE4=Essa magia
TTITLE5=Vou mudar
TTITLE6=24 horas no ar
TTITLE7=Nosso amor é pra valer
TTITLE8=Viciado em mulher
TTITLE9=Tempo
TTITLE10=Eu te amo tanto
TTITLE11=Hoje eu to na bagaceira
EXTD=
EXTT0=
EXTT1=
EXTT2=
EXTT3=
EXTT4=
EXTT5=
EXTT6=
EXTT7=
EXTT8=
EXTT9=
EXTT10=
EXTT11=
PLAYORDER=
